# xmcd
#
# Track frame offsets:
#	150
#	20421
#	35483
#	52794
#	69450
#	87050
#	105602
#	126289
#	144495
#	162284
#	181338
#	200658
#	216321
#	230184
#	249113
#	268043
#	288922
#	307713
#	321107
#	335154
#
# Disc length: 4736 seconds
#
# Revision: 1
# Processed by: cddbd v1.4PL0 Copyright (c) Steve Scherf et al.
# Submitted via: CDmax 2.0
#
DISCID=1f127e14
DTITLE=Игорь Николаев - Прости и отпусти
DYEAR=2002
DGENRE=Blues
TTITLE0=Прости и отпусти
TTITLE1=Пять причин
TTITLE2=Мой друг
TTITLE3=По секрету
TTITLE4=Ромео и Джульетта
TTITLE5=Поздравляю
TTITLE6=Невеста
TTITLE7=Мутная река воспоминаний
TTITLE8=Я вернусь
TTITLE9=Старый знакомый
TTITLE10=Разбитая чашка
TTITLE11=Дельфин и русалка
TTITLE12=Мельница
TTITLE13=Выпьем за любовь
TTITLE14=Мастер и Маргарита
TTITLE15=Такси-такси
TTITLE16=Малиновое вино
TTITLE17=Человек влюбленный в Сахалин
TTITLE18=Бедный Моцарт
TTITLE19=Портрет работы небесного маэстро
EXTD=
EXTT0=
EXTT1=
EXTT2=Дуэт с И.Крутым
EXTT3=
EXTT4=Дуэт с Д.Гурцкой
EXTT5=
EXTT6=Совместно с "Руки Вверх"
EXTT7=
EXTT8=Совместно со "Стрелками"
EXTT9=Дуэт с И.Аллегровой
EXTT10=
EXTT11=ДУэт с Н.Королевой
EXTT12=
EXTT13=
EXTT14=
EXTT15=
EXTT16=
EXTT17=
EXTT18=
EXTT19=
PLAYORDER=
